# xmcd
#
# Track frame offsets:
#	150
#	19215
#	38485
#	52447
#	66832
#	83637
#	103230
#	119507
#
# Disc length: 1806
#
# Revision: 2
# Processed by: cddbd v1.5.1PL0 Copyright (c) Steve Scherf et al.
# Submitted via: audiograbber 1.83.01
# Normalized: r1:DSETVAR2
#
DISCID=6d070c08
DTITLE=Various Artist - Keith WHITLEY and Friends
DYEAR=1995
DGENRE=Country
TTITLE0=Keith WHITLEY - Don't close your eyes
TTITLE1=Alan JACKSON - Don't close your eyes
TTITLE2=Keith WHITLEY - I'm over your
TTITLE3=Tracy LAWRENCE - I'm over you
TTITLE4=Keith WHITLEY - When you say nothing at all
TTITLE5=Alison KRAUSS and Union Station - When you say nothing at all
TTITLE6=Keith WHITLEY - I'm no stranger to the rain
TTITLE7=Joe DIFFIE - I'm no stranger to the rain
EXTD=
EXTT0=
EXTT1=
EXTT2=
EXTT3=
EXTT4=
EXTT5=
EXTT6=
EXTT7=
PLAYORDER=
